<svg width="199" height="123" viewBox="0 0 199 123" fill="none" xmlns="http://www.w3.org/2000/svg">
<path d="M34.9068 36.6757V85.0785C34.8653 85.1296 34.8138 85.1925 34.7533 85.2651C34.5795 85.4741 34.3333 85.7625 34.0444 86.0794C33.458 86.7228 32.7278 87.4483 32.0828 87.8823C27.8007 90.7644 23.4101 89.3719 18.6074 86.7259C14.5489 84.49 11.4967 82.3539 9.04059 79.7501C6.58778 77.1499 4.70605 74.0583 3.02445 69.8825C2.9136 69.6073 2.80553 69.3411 2.70053 69.0825C1.44449 65.9888 0.629849 63.9822 0.802485 60.5878C0.937432 57.9344 1.59676 56.382 2.58016 54.0666C2.72096 53.7351 2.8684 53.388 3.02191 53.0197C4.79212 48.7727 6.72605 45.5435 9.18786 42.809C11.6508 40.0732 14.6626 37.8097 18.6178 35.5181C21.0083 34.133 23.3134 32.949 25.5628 32.4806C27.7832 32.0181 29.9407 32.2542 32.0791 33.7189C32.7338 34.1674 33.462 34.9281 34.0445 35.6066C34.3312 35.9406 34.5744 36.2449 34.7458 36.4656C34.8103 36.5486 34.8644 36.6196 34.9068 36.6757Z" fill="#FFDE59" stroke="#FFDE59" stroke-width="1.10995"/>
<path d="M45.8256 88.6947L44.8965 87.0899V35.3833L45.8785 33.6368C46.0134 33.6308 46.1558 33.6243 46.3053 33.6174C47.5388 33.5604 49.2614 33.4728 51.2199 33.3501C55.1148 33.1061 60.0252 32.7188 63.8775 32.1458C77.748 30.0829 87.4778 23.5052 96.5208 17.3918C97.0106 17.0607 97.4983 16.731 97.9845 16.4034C107.499 9.99398 116.522 4.33952 129.728 3.77275C129.937 3.76378 130.144 3.75488 130.348 3.74607C138.717 3.3855 143.461 3.18113 151.32 5.21371C160.339 7.54606 165.214 10.0016 172.612 15.7168C177.587 19.5609 181.195 22.959 184.111 26.7829C187.022 30.6005 189.326 34.9501 191.568 40.7802C194.492 48.3825 195.333 53.0077 195.353 61.168C195.374 69.4282 194.489 74.1154 191.562 81.8627C189.317 87.8054 187.027 92.2573 184.119 96.1753C181.208 100.097 177.598 103.592 172.591 107.538C165.125 113.42 160.389 116.272 151.406 118.293C144.688 119.804 140.356 119.342 133.854 118.648C132.617 118.516 131.301 118.375 129.874 118.238C116.632 116.967 107.595 111.076 98.0473 104.699C97.8738 104.583 97.7001 104.467 97.5261 104.35C88.1729 98.0995 78.2379 91.4598 63.8136 89.6563C59.9445 89.1725 55.0248 88.9315 51.1298 88.8095C49.1701 88.7481 47.4469 88.7162 46.2131 88.6996C46.078 88.6978 45.9487 88.6962 45.8256 88.6947Z" stroke="#FFDE59" stroke-width="5.54977"/>
<path d="M155.981 35.2013L162.716 40.032L159.561 21.5028L140.996 24.453L147.815 29.3437C137.77 41.3094 120.201 47.7268 109.903 47.6734C111.461 48.4697 112.083 48.3606 113.701 48.8976C130.887 49.6938 140.595 45.2047 155.981 35.2013Z" fill="#FFDE59"/>
<path d="M168.171 75.9859H164.604V46.4702H168.171V75.9859Z" fill="#FFDE59"/>
<path d="M157.511 75.9859H153.945V46.4702H157.511V75.9859Z" fill="#FFDE59"/>
<path d="M148.5 65.7616H132.888C132.888 67.0641 133.084 68.2022 133.476 69.176C133.868 70.1371 134.406 70.9274 135.089 71.5471C135.746 72.1541 136.524 72.6093 137.422 72.9128C138.332 73.2164 139.331 73.3681 140.419 73.3681C141.861 73.3681 143.308 73.0836 144.763 72.5145C146.23 71.9328 147.273 71.3637 147.893 70.8073H148.082V74.6959C146.881 75.2018 145.654 75.6254 144.402 75.9669C143.15 76.3083 141.835 76.479 140.457 76.479C136.941 76.479 134.197 75.5306 132.224 73.6337C130.252 71.7241 129.265 69.0179 129.265 65.515C129.265 62.05 130.207 59.2995 132.092 57.2635C133.988 55.2275 136.48 54.2095 139.565 54.2095C142.423 54.2095 144.624 55.0441 146.166 56.7134C147.722 58.3826 148.5 60.7538 148.5 63.8267V65.7616ZM145.028 63.03C145.016 61.1584 144.541 59.7105 143.606 58.6861C142.683 57.6618 141.272 57.1497 139.376 57.1497C137.466 57.1497 135.942 57.7124 134.804 58.8379C133.679 59.9634 133.04 61.3608 132.888 63.03H145.028Z" fill="#FFDE59"/>
<path d="M126.175 74.6584C124.986 75.2274 123.855 75.67 122.78 75.9862C121.717 76.3023 120.586 76.4604 119.384 76.4604C117.854 76.4604 116.45 76.2391 115.173 75.7965C113.896 75.3412 112.802 74.6584 111.892 73.7479C110.968 72.8373 110.254 71.6866 109.748 70.2955C109.242 68.9045 108.989 67.2794 108.989 65.4205C108.989 61.9555 109.938 59.2366 111.835 57.2638C113.744 55.2911 116.261 54.3047 119.384 54.3047C120.598 54.3047 121.787 54.4754 122.95 54.8168C124.126 55.1583 125.201 55.5756 126.175 56.0688V60.0333H125.985C124.898 59.186 123.772 58.5348 122.609 58.0795C121.458 57.6243 120.333 57.3966 119.232 57.3966C117.209 57.3966 115.609 58.0795 114.433 59.4453C113.27 60.7984 112.688 62.7901 112.688 65.4205C112.688 67.975 113.257 69.9414 114.395 71.3198C115.546 72.6856 117.159 73.3685 119.232 73.3685C119.953 73.3685 120.687 73.2736 121.433 73.0839C122.179 72.8943 122.849 72.6477 123.444 72.3442C123.962 72.0786 124.449 71.8004 124.904 71.5095C125.359 71.206 125.72 70.9468 125.985 70.7318H126.175V74.6584Z" fill="#FFDE59"/>
<path d="M91.1574 75.986H72.5488V47.7412H91.1574V51.0797H76.3047V58.8191H91.1574V62.1576H76.3047V72.6474H91.1574V75.986Z" fill="#FFDE59"/>
</svg>
